<svg width="333" height="334" xmlns="http://www.w3.org/2000/svg" xmlns:xlink="http://www.w3.org/1999/xlink" overflow="hidden"><defs><clipPath id="clip0"><rect x="1391" y="310" width="333" height="334"/></clipPath><linearGradient x1="157.1" y1="75.4869" x2="185.627" y2="165.487" gradientUnits="userSpaceOnUse" spreadMethod="pad" id="fill1"><stop offset="0" stop-color="#4ADDDF"/><stop offset="0.699" stop-color="#3F5352"/><stop offset="0.863" stop-color="#442729"/><stop offset="1" stop-color="#442729"/></linearGradient><linearGradient x1="6.9375" y1="187.541" x2="262.064" y2="187.541" gradientUnits="userSpaceOnUse" spreadMethod="pad" id="fill2"><stop offset="0" stop-color="#4ADDDF"/><stop offset="0.792" stop-color="#3F5352"/><stop offset="1" stop-color="#442729"/></linearGradient><linearGradient x1="76.3125" y1="166.5" x2="326.062" y2="166.5" gradientUnits="userSpaceOnUse" spreadMethod="pad" id="fill3"><stop offset="0" stop-color="#53140F"/><stop offset="0.206" stop-color="#53140F"/><stop offset="0.3" stop-color="#84360F"/><stop offset="0.413" stop-color="#B85B10"/><stop offset="0.511" stop-color="#DF7610"/><stop offset="0.59" stop-color="#F68710"/><stop offset="0.639" stop-color="#FF8D10"/><stop offset="0.729" stop-color="#FD8A10"/><stop offset="0.8" stop-color="#F58010"/><stop offset="0.865" stop-color="#E86F10"/><stop offset="0.925" stop-color="#D65811"/><stop offset="0.982" stop-color="#C03A11"/><stop offset="1" stop-color="#B72F11"/></linearGradient></defs><g clip-path="url(#clip0)" transform="translate(-1391 -310)"><path d="M145.688 187.312 97.125 145.688C97.125 145.688 104.062 135.281 114.469 124.875 124.875 114.469 133.45 112.027 145.688 104.062 170.045 88.2172 190.781 20.8125 222 20.8125L145.688 187.312Z" fill="url(#fill1)" transform="matrix(1 0 0 1.003 1391 310)"/><path d="M76.3125 229.395 6.9375 180.375 97.125 145.688 147.609 183.601 97.125 222.458Z" fill="url(#fill2)" transform="matrix(1 0 0 1.003 1391 310)"/><path d="M222 20.8125C256.688 20.8125 312.188 208.125 326.062 256.688 326.062 256.688 277.382 210.692 249.75 215.062 222.118 219.433 211.802 260.489 182.283 289.682 163.031 308.719 145.688 312.188 145.688 312.188 145.688 312.188 144.258 255.827 111 235.875 93.6562 225.469 76.3125 228.938 76.3125 228.938 76.3125 228.938 118.277 208.812 142.038 172.23 165.799 135.649 197.719 20.8125 222 20.8125Z" fill="url(#fill3)" transform="matrix(1 0 0 1.003 1391 310)"/></g></svg>