<svg width="347" height="347" xmlns="http://www.w3.org/2000/svg" xmlns:xlink="http://www.w3.org/1999/xlink" overflow="hidden"><defs><clipPath id="clip0"><rect x="69" y="339" width="347" height="347"/></clipPath></defs><g clip-path="url(#clip0)" transform="translate(-69 -339)"><path d="M242.84 375.146C231.598 375.182 223.805 376.172 214.386 377.799 186.568 382.642 181.5 392.814 181.5 411.559L181.5 440.208 246.563 440.208 246.563 454.667 179.028 454.667 147.581 454.667C128.525 454.667 111.847 463.645 106.563 485.167 100.591 509.869 100.324 525.339 106.563 551.133 111.298 570.37 121.73 584.792 140.793 584.792L167.049 584.792 167.049 547.894C167.049 526.452 186.467 505.271 208.718 505.271L261.028 505.271C279.268 505.271 297.174 491.81 297.174 473.629L297.174 411.559C297.174 393.927 284.458 380.741 266.682 377.784 267.123 377.741 253.987 375.102 242.84 375.146ZM206.81 404.062C212.745 404.062 217.653 408.957 217.653 414.921 217.653 420.943 212.745 425.75 206.81 425.75 200.759 425.75 195.966 420.95 195.966 414.921 195.966 408.978 200.759 404.062 206.81 404.062Z" fill="#0277BD"/><path d="M235.835 649.854C247.076 649.818 254.869 648.828 264.289 647.201 292.107 642.358 297.174 632.186 297.174 613.441L297.174 584.792 232.112 584.792 232.112 570.333 299.654 570.333 331.101 570.333C350.157 570.333 366.834 561.355 372.119 539.833 378.09 515.131 378.358 499.661 372.119 473.867 367.377 454.631 356.945 440.208 337.882 440.208L311.625 440.208 311.625 477.106C311.625 498.548 292.208 519.729 269.956 519.729L217.646 519.729C199.407 519.729 181.5 533.19 181.5 551.371L181.5 613.441C181.5 631.073 194.216 644.259 211.993 647.216 211.552 647.259 224.687 649.898 235.835 649.854ZM271.872 620.938C265.937 620.938 261.028 616.043 261.028 610.079 261.028 604.057 265.937 599.25 271.872 599.25 277.923 599.25 282.716 604.05 282.716 610.079 282.716 616.022 277.916 620.938 271.872 620.938Z" fill="#FFC107"/></g></svg>